<?xml version="1.0" encoding="utf-8"?>
<!-- Generator: Adobe Illustrator 18.0.0, SVG Export Plug-In . SVG Version: 6.00 Build 0)  -->
<!DOCTYPE svg PUBLIC "-//W3C//DTD SVG 1.1//EN" "http://www.w3.org/Graphics/SVG/1.1/DTD/svg11.dtd">
<svg version="1.1" id="Layer_1" xmlns="http://www.w3.org/2000/svg" xmlns:xlink="http://www.w3.org/1999/xlink" x="0px" y="0px"
	 viewBox="0 0 512 512" enable-background="new 0 0 512 512" xml:space="preserve">
<path id="microphone-3-icon" fill="#1AB6B4" d="M188,240.1v-122c0-37.6,30.4-68,68-68c37.6,0,68,30.4,68,68v122
	c0,37.6-30.4,68-68,68C218.4,308.1,188,277.6,188,240.1z M354,205.1v35c0,54-44,98-98,98s-98-44-98-98v-35h-40v35
	c0,68.4,50.1,125.4,115.5,136.2v45.7H176v40h160v-40h-57.5v-45.7C343.9,365.5,394,308.5,394,240.1v-35H354z"/>
</svg>
