<?xml version="1.0" encoding="utf-8"?>
<!-- Generator: Adobe Illustrator 16.0.0, SVG Export Plug-In . SVG Version: 6.00 Build 0)  -->
<!DOCTYPE svg PUBLIC "-//W3C//DTD SVG 1.1//EN" "http://www.w3.org/Graphics/SVG/1.1/DTD/svg11.dtd">
<svg version="1.1" xmlns="http://www.w3.org/2000/svg" xmlns:xlink="http://www.w3.org/1999/xlink" x="0px" y="0px" width="960px"
	 height="398px" viewBox="0 0 960 398" enable-background="new 0 0 960 398" xml:space="preserve">
<g id="Layer_3">
	<rect x="-1" y="-70" opacity="0.57" fill="#E5435A" width="960" height="570"/>
</g>
<g id="Layer_1">
	<rect x="65.103" y="28.567" fill="#E5435A" width="357.107" height="20.538"/>
	<g>
		<defs>
			<rect id="SVGID_1_" x="65.103" y="28.567" width="357.107" height="287.543"/>
		</defs>
		<clipPath id="SVGID_2_">
			<use xlink:href="#SVGID_1_"  overflow="visible"/>
		</clipPath>
		
			<rect x="64.984" y="28.087" clip-path="url(#SVGID_2_)" fill="none" stroke="#E5435A" stroke-miterlimit="10" width="358.241" height="21.018"/>
	</g>
	<rect x="65.103" y="28.567" fill="none" stroke="#E5435A" stroke-miterlimit="10" width="357.107" height="287.543"/>
	<g>
		<defs>
			<rect id="SVGID_3_" x="-30" y="-92" width="1071.429" height="625"/>
		</defs>
		<clipPath id="SVGID_4_">
			<use xlink:href="#SVGID_3_"  overflow="visible"/>
		</clipPath>
		<g opacity="0.48" clip-path="url(#SVGID_4_)">
			<g>
				<defs>
					<rect id="SVGID_5_" x="75.316" y="64.622" width="336.681" height="96.727"/>
				</defs>
				<clipPath id="SVGID_6_">
					<use xlink:href="#SVGID_5_"  overflow="visible"/>
				</clipPath>
				<rect x="75.316" y="64.622" clip-path="url(#SVGID_6_)" fill="#E5435A" width="336.681" height="96.727"/>
			</g>
		</g>
	</g>
	<rect x="194.015" y="99.593" fill="#E5435A" width="200.893" height="13.393"/>
	<rect x="194.015" y="121.914" fill="#E5435A" width="200.893" height="5.581"/>
	<rect x="194.015" y="133.075" fill="#E5435A" width="200.893" height="5.581"/>
	<rect x="194.015" y="144.236" fill="#E5435A" width="200.893" height="5.58"/>
	<g>
		<defs>
			<rect id="SVGID_7_" x="-30" y="-92" width="1071.429" height="625"/>
		</defs>
		<clipPath id="SVGID_8_">
			<use xlink:href="#SVGID_7_"  overflow="visible"/>
		</clipPath>
		<g opacity="0.48" clip-path="url(#SVGID_8_)">
			<g>
				<defs>
					<rect id="SVGID_9_" x="194.015" y="175.113" width="101.517" height="47.991"/>
				</defs>
				<clipPath id="SVGID_10_">
					<use xlink:href="#SVGID_9_"  overflow="visible"/>
				</clipPath>
				<rect x="194.015" y="175.113" clip-path="url(#SVGID_10_)" fill="#E5435A" width="101.517" height="47.991"/>
			</g>
		</g>
		<g opacity="0.48" clip-path="url(#SVGID_8_)">
			<g>
				<defs>
					<rect id="SVGID_11_" x="311.192" y="175.113" width="101.517" height="47.991"/>
				</defs>
				<clipPath id="SVGID_12_">
					<use xlink:href="#SVGID_11_"  overflow="visible"/>
				</clipPath>
				<rect x="311.192" y="175.113" clip-path="url(#SVGID_12_)" fill="#E5435A" width="101.517" height="47.991"/>
			</g>
		</g>
		<g opacity="0.48" clip-path="url(#SVGID_8_)">
			<g>
				<defs>
					<rect id="SVGID_13_" x="77.515" y="175.113" width="101.517" height="47.991"/>
				</defs>
				<clipPath id="SVGID_14_">
					<use xlink:href="#SVGID_13_"  overflow="visible"/>
				</clipPath>
				<rect x="77.514" y="175.113" clip-path="url(#SVGID_14_)" fill="#E5435A" width="101.517" height="47.991"/>
			</g>
		</g>
	</g>
	<rect x="77.514" y="232.405" fill="#E5435A" width="101.517" height="10.331"/>
	<rect x="77.514" y="249.623" fill="#E5435A" width="101.517" height="4.307"/>
	<rect x="77.514" y="258.233" fill="#E5435A" width="101.517" height="4.306"/>
	<rect x="194.33" y="232.166" fill="#E5435A" width="101.517" height="10.332"/>
	<rect x="194.33" y="249.385" fill="#E5435A" width="101.517" height="4.306"/>
	<rect x="194.33" y="257.994" fill="#E5435A" width="101.517" height="4.306"/>
	<rect x="311.518" y="232.166" fill="#E5435A" width="101.517" height="10.332"/>
	<rect x="311.518" y="249.385" fill="#E5435A" width="101.517" height="4.306"/>
	<rect x="311.518" y="257.994" fill="#E5435A" width="101.517" height="4.306"/>
	<g>
		<defs>
			<rect id="SVGID_15_" x="-30" y="-92" width="1071.429" height="625"/>
		</defs>
		<clipPath id="SVGID_16_">
			<use xlink:href="#SVGID_15_"  overflow="visible"/>
		</clipPath>
		<g opacity="0.48" clip-path="url(#SVGID_16_)">
			<g>
				<defs>
					<rect id="SVGID_17_" x="76.748" y="274.816" width="336.682" height="20.089"/>
				</defs>
				<clipPath id="SVGID_18_">
					<use xlink:href="#SVGID_17_"  overflow="visible"/>
				</clipPath>
				<rect x="76.748" y="274.816" clip-path="url(#SVGID_18_)" fill="#E5435A" width="336.682" height="20.089"/>
			</g>
		</g>
	</g>
	<rect x="611.978" y="29.108" fill="#E5435A" width="286.593" height="16.515"/>
	<g>
		<defs>
			<rect id="SVGID_19_" x="611.978" y="29.108" width="286.593" height="231.198"/>
		</defs>
		<clipPath id="SVGID_20_">
			<use xlink:href="#SVGID_19_"  overflow="visible"/>
		</clipPath>
		
			<rect x="611.882" y="28.723" clip-path="url(#SVGID_20_)" fill="none" stroke="#E5435A" stroke-miterlimit="10" width="287.505" height="16.9"/>
	</g>
	<rect x="611.978" y="29.11" fill="none" stroke="#E5435A" stroke-miterlimit="10" width="286.594" height="231.197"/>
	<g opacity="0.48">
		<g>
			<defs>
				<rect id="SVGID_21_" x="679.103" y="67.189" width="30.854" height="52.49"/>
			</defs>
			<clipPath id="SVGID_22_">
				<use xlink:href="#SVGID_21_"  overflow="visible"/>
			</clipPath>
			<path clip-path="url(#SVGID_22_)" fill="#E5435A" d="M709.956,119.68l-30.854-42.465c9.381-6.816,18.576-10.025,30.854-10.025
				V119.68z"/>
		</g>
	</g>
	<g opacity="0.34">
		<g>
			<defs>
				<rect id="SVGID_23_" x="656.97" y="77.214" width="52.603" height="58.686"/>
			</defs>
			<clipPath id="SVGID_24_">
				<use xlink:href="#SVGID_23_"  overflow="visible"/>
			</clipPath>
			<path clip-path="url(#SVGID_24_)" fill="#E5435A" d="M709.572,119.68l-49.921,16.22c-7.167-22.056,0.307-45.054,19.068-58.686
				L709.572,119.68z"/>
		</g>
	</g>
	<path fill="#F28CA5" d="M709.572,119.68l30.853,42.465c-23.453,17.04-56.278,11.841-73.317-11.613
		c-3.408-4.691-5.664-9.118-7.456-14.632L709.572,119.68z"/>
	<path fill="#B5354D" d="M709.956,119.68v-52.49c29.018,0,52.299,23.5,52.299,52.49c0,17.394-7.471,32.243-21.542,42.465
		L709.956,119.68z"/>
	<g opacity="0.48">
		<g>
			<defs>
				<rect id="SVGID_25_" x="627.598" y="196.464" width="98.727" height="47.991"/>
			</defs>
			<clipPath id="SVGID_26_">
				<use xlink:href="#SVGID_25_"  overflow="visible"/>
			</clipPath>
			<rect x="627.598" y="196.464" clip-path="url(#SVGID_26_)" fill="#E5435A" width="98.727" height="47.991"/>
		</g>
	</g>
	<rect x="636.853" y="206.642" fill="#E5435A" width="80.683" height="10.331"/>
	<rect x="636.853" y="223.861" fill="#E5435A" width="80.683" height="4.306"/>
	<rect x="636.853" y="232.471" fill="#E5435A" width="80.683" height="4.306"/>
	<g opacity="0.48">
		<g>
			<defs>
				<rect id="SVGID_27_" x="734.509" y="196.464" width="75.22" height="47.991"/>
			</defs>
			<clipPath id="SVGID_28_">
				<use xlink:href="#SVGID_27_"  overflow="visible"/>
			</clipPath>
			<rect x="734.509" y="196.464" clip-path="url(#SVGID_28_)" fill="#E5435A" width="75.22" height="47.991"/>
		</g>
	</g>
	<rect x="741.396" y="206.88" fill="#E5435A" width="56.568" height="2.153"/>
	<rect x="741.396" y="211.185" fill="#E5435A" width="56.568" height="2.153"/>
	<rect x="741.396" y="218.041" fill="#E5435A" width="56.568" height="2.153"/>
	<rect x="741.396" y="222.347" fill="#E5435A" width="56.568" height="2.151"/>
	<path fill="#EA697B" d="M735.625,119.216c0,14.332-11.617,25.949-25.948,25.949c-14.332,0-25.949-11.617-25.949-25.949
		c0-14.331,11.617-25.949,25.949-25.949C724.008,93.268,735.625,104.885,735.625,119.216"/>
	<g opacity="0.48">
		<g>
			<defs>
				<rect id="SVGID_29_" x="816.655" y="196.951" width="75.22" height="47.992"/>
			</defs>
			<clipPath id="SVGID_30_">
				<use xlink:href="#SVGID_29_"  overflow="visible"/>
			</clipPath>
			<rect x="816.655" y="196.951" clip-path="url(#SVGID_30_)" fill="#E5435A" width="75.22" height="47.992"/>
		</g>
	</g>
	<rect x="823.542" y="207.367" fill="#E5435A" width="56.569" height="2.153"/>
	<rect x="823.542" y="211.672" fill="#E5435A" width="56.569" height="2.153"/>
	<rect x="823.542" y="218.527" fill="#E5435A" width="56.569" height="2.153"/>
	<rect x="823.542" y="222.832" fill="#E5435A" width="56.569" height="2.153"/>
	<line fill="none" stroke="#E5435A" stroke-miterlimit="10" x1="700.469" y1="85.456" x2="700.469" y2="73.179"/>
	<line fill="none" stroke="#E5435A" stroke-miterlimit="10" x1="701.026" y1="73.736" x2="823.795" y2="73.736"/>
	<line fill="none" stroke="#E5435A" stroke-miterlimit="10" x1="747.901" y1="119.496" x2="823.795" y2="119.496"/>
	<line fill="none" stroke="#E5435A" stroke-miterlimit="10" x1="722.232" y1="158.558" x2="823.795" y2="158.558"/>
	<g opacity="0.34">
		<g>
			<defs>
				<rect id="SVGID_31_" x="803.263" y="68.57" width="73.428" height="15.355"/>
			</defs>
			<clipPath id="SVGID_32_">
				<use xlink:href="#SVGID_31_"  overflow="visible"/>
			</clipPath>
			<rect x="803.263" y="68.571" clip-path="url(#SVGID_32_)" fill="#E5435A" width="73.428" height="15.354"/>
		</g>
	</g>
	<g opacity="0.34">
		<g>
			<defs>
				<rect id="SVGID_33_" x="803.263" y="111.539" width="73.428" height="15.355"/>
			</defs>
			<clipPath id="SVGID_34_">
				<use xlink:href="#SVGID_33_"  overflow="visible"/>
			</clipPath>
			<rect x="803.263" y="111.541" clip-path="url(#SVGID_34_)" fill="#E5435A" width="73.428" height="15.354"/>
		</g>
	</g>
	<g opacity="0.34">
		<g>
			<defs>
				<rect id="SVGID_35_" x="803.263" y="150.88" width="73.428" height="15.355"/>
			</defs>
			<clipPath id="SVGID_36_">
				<use xlink:href="#SVGID_35_"  overflow="visible"/>
			</clipPath>
			<rect x="803.263" y="150.881" clip-path="url(#SVGID_36_)" fill="#E5435A" width="73.428" height="15.354"/>
		</g>
	</g>
	<rect x="-30" y="-92" fill="none" width="1071.429" height="625"/>
	<g>
		<defs>
			<rect id="SVGID_37_" x="-30" y="-92" width="1071.429" height="625"/>
		</defs>
		<clipPath id="SVGID_38_">
			<use xlink:href="#SVGID_37_"  overflow="visible"/>
		</clipPath>
		<path clip-path="url(#SVGID_38_)" fill="#B5354D" d="M701.25,334.339c0,6.139-5.021,11.161-11.161,11.161H314.196
			c-6.138,0-11.161-5.022-11.161-11.161V107.553c0-6.138,5.022-11.161,11.161-11.161h375.893c6.14,0,11.161,5.022,11.161,11.161
			V334.339z"/>
		<rect x="318.661" y="112.465" clip-path="url(#SVGID_38_)" fill="#F28CA5" width="365.625" height="217.857"/>
		<path clip-path="url(#SVGID_38_)" fill="#FFFFFF" d="M732.38,355.02c-1.513,3.358-5.764,6.105-9.447,6.105h-444.92
			c-3.683,0-8.273-2.568-10.201-5.706l-7.252-11.803c-1.928-3.138-0.492-5.707,3.191-5.707h469.643c3.683,0,5.457,2.748,3.945,6.107
			L732.38,355.02z"/>
		<g opacity="0.34" clip-path="url(#SVGID_38_)">
			<g>
				<defs>
					<rect id="SVGID_39_" x="259.702" y="337.24" width="478.175" height="23.215"/>
				</defs>
				<clipPath id="SVGID_40_">
					<use xlink:href="#SVGID_39_"  overflow="visible"/>
				</clipPath>
				<path clip-path="url(#SVGID_40_)" fill="#E5435A" d="M732.38,354.35c-1.513,3.358-5.764,6.104-9.447,6.104h-444.92
					c-3.683,0-8.273-2.565-10.201-5.705l-7.252-11.802c-1.928-3.139-0.492-5.707,3.191-5.707h469.643
					c3.683,0,5.457,2.748,3.945,6.106L732.38,354.35z"/>
			</g>
		</g>
	</g>
	<g>
		<defs>
			<rect id="SVGID_41_" x="319.33" y="112.465" width="365.625" height="217.857"/>
		</defs>
		<clipPath id="SVGID_42_">
			<use xlink:href="#SVGID_41_"  overflow="visible"/>
		</clipPath>
		<polygon clip-path="url(#SVGID_42_)" fill="#E05372" points="684.286,330.322 318.661,330.322 313.75,327.085 370.814,216.973 
			404.237,254.727 447.025,180.771 542.542,211.186 588.858,159.979 659.028,183.753 684.286,112.465 		"/>
		<path clip-path="url(#SVGID_42_)" fill="none" stroke="#FFFFFF" stroke-width="7" stroke-miterlimit="10" d="M313.75,327.085
			l59.332-114.486l31.155,42.127c0,0,40.105-73.02,42.789-73.956c2.682-0.936,90.852,30.696,90.852,30.696l50.981-51.488
			l74.868,23.6l25.023-71.114"/>
	</g>
	<g>
		<defs>
			<rect id="SVGID_43_" x="-30" y="-92" width="1071.429" height="625"/>
		</defs>
		<clipPath id="SVGID_44_">
			<use xlink:href="#SVGID_43_"  overflow="visible"/>
		</clipPath>
		<path clip-path="url(#SVGID_44_)" fill="#FFFFFF" d="M390.553,215.959c0,7.977-6.467,14.443-14.443,14.443
			c-7.977,0-14.444-6.466-14.444-14.443c0-7.976,6.467-14.443,14.444-14.443C384.086,201.517,390.553,207.983,390.553,215.959"/>
		<path clip-path="url(#SVGID_44_)" fill="#FFFFFF" d="M425.108,251.047c0,7.976-6.466,14.442-14.443,14.442
			s-14.443-6.467-14.443-14.442c0-7.978,6.466-14.443,14.443-14.443S425.108,243.069,425.108,251.047"/>
		<path clip-path="url(#SVGID_44_)" fill="#FFFFFF" d="M465.542,184.284c0,7.977-6.466,14.443-14.443,14.443
			s-14.443-6.466-14.443-14.443s6.466-14.443,14.443-14.443S465.542,176.308,465.542,184.284"/>
		<path clip-path="url(#SVGID_44_)" fill="#FFFFFF" d="M556.986,205.501c0,7.977-6.467,14.442-14.444,14.442
			c-7.976,0-14.442-6.466-14.442-14.442c0-7.978,6.467-14.444,14.442-14.444C550.52,191.057,556.986,197.523,556.986,205.501"/>
		<path clip-path="url(#SVGID_44_)" fill="#FFFFFF" d="M605.179,161.952c0,7.977-6.467,14.443-14.442,14.443
			c-7.978,0-14.443-6.467-14.443-14.443s6.466-14.443,14.443-14.443C598.712,147.509,605.179,153.976,605.179,161.952"/>
		<path clip-path="url(#SVGID_44_)" fill="#FFFFFF" d="M673.473,183.753c0,7.977-6.467,14.443-14.444,14.443
			c-7.977,0-14.442-6.467-14.442-14.443c0-7.976,6.466-14.443,14.442-14.443C667.006,169.31,673.473,175.777,673.473,183.753"/>
	</g>
	<g>
		<defs>
			<rect id="SVGID_45_" x="-30" y="-92" width="1071.429" height="625"/>
		</defs>
		<clipPath id="SVGID_46_">
			<use xlink:href="#SVGID_45_"  overflow="visible"/>
		</clipPath>
		<g clip-path="url(#SVGID_46_)">
			<g>
				<defs>
					<rect id="SVGID_47_" x="-30.558" y="-90.711" width="1072.545" height="626.115"/>
				</defs>
				<clipPath id="SVGID_48_">
					<use xlink:href="#SVGID_47_"  overflow="visible"/>
				</clipPath>
			</g>
		</g>
	</g>
	<rect x="-30" y="-92" fill="none" width="1071.429" height="625"/>
</g>
<g id="Layer_2" opacity="0.7">
	<rect x="-1" y="-72.738" opacity="0.8" fill="#E5435A" width="960" height="570"/>
</g>
</svg>
