<?xml version="1.0" encoding="utf-8"?>
<!-- Generator: Adobe Illustrator 16.0.0, SVG Export Plug-In . SVG Version: 6.00 Build 0)  -->
<!DOCTYPE svg PUBLIC "-//W3C//DTD SVG 1.1//EN" "http://www.w3.org/Graphics/SVG/1.1/DTD/svg11.dtd">
<svg version="1.1" id="Layer_1" xmlns="http://www.w3.org/2000/svg" xmlns:xlink="http://www.w3.org/1999/xlink" x="0px" y="0px"
	 width="444.944px" height="152.809px" viewBox="0 0 444.944 152.809" enable-background="new 0 0 444.944 152.809"
	 xml:space="preserve">
<g>
	<path fill="#4E4E4E" d="M21.424,114.78c0.422-19.211,7.374-34.802,23.192-45.521c5.396-3.655,9.787-7.447,12.714-13.383
		c1.818-3.688,4.868-6.953,7.931-9.799c4.359-4.051,8.772-3.407,12.514,1.15c0.768,0.935,1.46,1.934,2.246,2.854
		c10.165,11.898,23.193,11.895,33.309-0.008c0.783-0.922,1.492-1.907,2.263-2.84c3.729-4.517,8.431-5.347,12.461-1.107
		c4.109,4.324,7.153,9.648,10.821,14.414c1.58,2.054,3.242,4.33,5.398,5.61c17.41,10.342,26.388,25.65,27.541,45.722
		c0.05,0.869-0.076,1.748-0.135,2.908C121.7,114.78,71.972,114.78,21.424,114.78z"/>
	<path fill="#4E4E4E" d="M167.396,79.225c-5.74-9.557-13.304-16.648-23.611-20.611c-0.97-0.373-1.63-2.037-2.068-3.234
		c-4.451-12.166-12.758-18.039-25.741-18.051c-13.02-0.013-26.039-0.001-39.059,0.007c-12.178,0.008-20.824,6.22-25.156,17.687
		c-0.644,1.706-2.257,3.543-3.892,4.292c-8.215,3.766-14.837,9.266-19.795,16.804c-0.649,0.988-1.364,1.935-2.09,2.958
		c-9.552-12.619-9.713-29.785-0.25-41.936c7.226-9.277,16.245-15.735,28.438-16.774c30.515-2.6,61.143-4.36,91.373,1.432
		c25.266,4.841,36.82,34.08,23.193,55.805C168.441,78.079,168.021,78.477,167.396,79.225z"/>
</g>
<g opacity="0.18">
	<path fill="#B4B4B4" d="M45.455,94.141c10.28-1.822,20.27-4.693,30.012-8.428c16.045-7.353,30.819-16.761,45.157-27.067
		c3.259-2.342,6.494-4.717,9.692-7.141c0.444-0.353,0.885-0.711,1.328-1.064c-1.129-1.502-2.306-2.96-3.592-4.313
		c-4.03-4.24-8.732-3.409-12.461,1.107c-0.771,0.933-1.479,1.918-2.263,2.84c-10.115,11.902-23.144,11.906-33.309,0.008
		c-0.786-0.92-1.479-1.918-2.246-2.854c-3.741-4.557-8.154-5.201-12.514-1.15c-3.062,2.846-6.112,6.111-7.931,9.799
		c-2.927,5.936-7.318,9.728-12.714,13.383c-9.806,6.645-16.198,15.165-19.746,25.256C31.727,94.947,38.611,94.79,45.455,94.141z"/>
	<path fill="#B4B4B4" d="M28.074,76.119c4.958-7.538,11.58-13.039,19.795-16.804c1.635-0.75,3.248-2.587,3.892-4.292
		c4.332-11.467,12.979-17.679,25.156-17.687c13.02-0.009,26.039-0.02,39.059-0.008c9.166,0.009,15.991,2.954,20.785,8.957
		c5.931-4.897,11.76-9.922,17.38-15.173c1.445-1.349,2.876-2.713,4.302-4.083c-3.746-2.484-8.068-4.306-12.896-5.23
		c-30.23-5.792-60.858-4.032-91.373-1.432c-12.193,1.039-21.213,7.498-28.438,16.774c-9.463,12.15-9.302,29.317,0.25,41.936
		C26.71,78.054,27.425,77.107,28.074,76.119z"/>
</g>
<path fill="#FFFFFF" d="M98.518,98.781c4.08,0.901,8.023,3.529,11.36,4.596c14.503,4.636,26.071-12.658,26.17-19.684
	c0.044-3.172-1.443-7.717-6.833-10.065c-7.349-3.203-16.468,5.552-29.952,6.552h-3.958c-13.485-1-22.604-9.754-29.952-6.552
	c-5.391,2.349-6.878,6.987-6.834,10.159c0.099,7.025,11.667,24.272,26.17,19.637c3.337-1.066,7.28-3.718,11.36-4.619L98.518,98.781z
	"/>
<g>
	<path fill="#FFFFFF" d="M192.781,85.768c2.332-2.398,5.179-3.598,8.537-3.598c1.068,0,2.082,0.088,3.042,0.262l-1.439,9.028
		c-1.068-0.96-2.596-1.472-4.579-1.537c-2.225,0.152-4.078,1.767-5.561,4.841v20.117h-9.16V83.119l9.16-0.981V85.768z"/>
	<path fill="#FFFFFF" d="M208.011,71.032c0.872-0.883,2.05-1.325,3.533-1.325c1.569,0,2.791,0.441,3.663,1.325
		c0.872,0.883,1.309,1.979,1.309,3.287c0,1.31-0.437,2.399-1.309,3.271c-0.872,0.873-2.071,1.309-3.598,1.309
		s-2.727-0.436-3.599-1.309c-0.872-0.871-1.308-1.961-1.308-3.271C206.703,73.011,207.139,71.915,208.011,71.032z M216.188,114.881
		V82.138h-9.159v32.743H216.188z"/>
	<path fill="#FFFFFF" d="M229.979,94.077v20.804h-9.159V83.119l9.159-0.981v2.977c2.202-1.963,4.819-2.944,7.851-2.944
		c4.144,0,7.306,1.254,9.486,3.762s3.271,5.397,3.271,8.668v20.281h-9.159v-17.99c0-2.182-0.546-3.871-1.636-5.07
		c-1.091-1.199-2.737-1.832-4.939-1.897C232.956,90.054,231.332,91.439,229.979,94.077z"/>
	<path fill="#FFFFFF" d="M285.804,83.151v29.113c0,4.579-1.363,8.406-4.089,11.48c-2.727,3.075-6.16,4.7-10.304,4.874l-1.963,0.196
		c-6.324-0.131-11.231-1.941-14.72-5.43l4.252-4.906c2.399,1.744,5.311,2.726,8.734,2.944c3.488,0,5.85-0.818,7.082-2.454
		c1.231-1.635,1.848-3.435,1.848-5.396v-1.637c-2.442,1.963-5.277,2.944-8.505,2.944c-5.016,0-8.777-1.472-11.285-4.415
		c-2.508-2.944-3.762-6.925-3.762-11.94c0-4.797,1.363-8.723,4.089-11.775s6.597-4.58,11.612-4.58
		c3.707,0.219,6.324,1.211,7.851,2.977V82.17L285.804,83.151z M276.645,101.47v-5.299c-0.437-3.664-2.726-5.812-6.869-6.444
		c-5.452,0.196-8.396,2.91-8.832,8.145c0.218,6.106,3.162,9.269,8.832,9.486C273.919,106.703,276.208,104.74,276.645,101.47z"/>
	<path fill="#FFFFFF" d="M290.011,107.014c0.872-0.883,2.05-1.324,3.532-1.324c1.57,0,2.791,0.441,3.664,1.324
		c0.872,0.884,1.309,1.979,1.309,3.288s-0.437,2.398-1.309,3.271c-0.873,0.872-2.072,1.308-3.599,1.308s-2.726-0.436-3.598-1.308
		c-0.873-0.873-1.309-1.963-1.309-3.271S289.138,107.897,290.011,107.014z"/>
	<path fill="#FFFFFF" d="M313.811,94.077v20.804h-9.158V83.119l9.158-0.981v2.977c2.203-1.963,4.819-2.944,7.852-2.944
		c4.143,0,7.305,1.254,9.485,3.762s3.271,5.397,3.271,8.668v20.281h-9.159v-17.99c0-2.182-0.545-3.871-1.636-5.07
		s-2.737-1.832-4.939-1.897C316.787,90.054,315.163,91.439,313.811,94.077z"/>
	<path fill="#FFFFFF" d="M339.737,71.032c0.872-0.883,2.05-1.325,3.533-1.325c1.57,0,2.791,0.441,3.663,1.325
		c0.872,0.883,1.309,1.979,1.309,3.287c0,1.31-0.437,2.399-1.309,3.271c-0.872,0.873-2.071,1.309-3.598,1.309
		s-2.727-0.436-3.599-1.309c-0.872-0.871-1.309-1.961-1.309-3.271C338.429,73.011,338.865,71.915,339.737,71.032z M347.915,114.881
		V82.138h-9.158v32.743H347.915z"/>
	<path fill="#FFFFFF" d="M361.706,94.077v20.804h-9.159V83.119l9.159-0.981v2.977c2.203-1.963,4.819-2.944,7.851-2.944
		c4.144,0,7.306,1.254,9.486,3.762s3.271,5.397,3.271,8.668v20.281h-9.159v-17.99c0-2.182-0.546-3.871-1.636-5.07
		c-1.091-1.199-2.737-1.832-4.939-1.897C364.683,90.054,363.059,91.439,361.706,94.077z"/>
	<path fill="#FFFFFF" d="M382.039,121.424c4.384-0.196,6.575-2.585,6.575-7.164V82.17h9.191l-0.032,33.725
		c0,3.903-1.091,7.055-3.271,9.454c-2.181,2.398-5.212,3.598-9.093,3.598h-6.608v-7.522H382.039z M388.255,74.319
		c0,1.31,0.436,2.399,1.308,3.271c0.872,0.873,2.072,1.309,3.599,1.309s2.726-0.436,3.599-1.309
		c0.872-0.871,1.309-1.961,1.309-3.271c0-1.309-0.437-2.404-1.309-3.287c-0.873-0.883-2.094-1.325-3.664-1.325
		c-1.483,0-2.661,0.441-3.533,1.325C388.69,71.915,388.255,73.011,388.255,74.319z"/>
	<path fill="#FFFFFF" d="M403.387,86.096c4.143-2.617,8.94-3.926,14.393-3.926c3.926,0,7.033,1.091,9.322,3.271
		c2.29,2.182,3.436,5.452,3.436,9.813v19.626h-9.159v-2.616c-2.661,1.744-5.06,2.616-7.196,2.616c-4.362,0-7.633-0.927-9.813-2.78
		c-2.181-1.853-3.271-4.416-3.271-7.687c0-3.053,1.03-5.779,3.091-8.178c2.062-2.398,5.393-3.6,9.994-3.6
		c2.114,0,4.514,0.655,7.196,1.963v-0.98c-0.045-2.398-1.789-3.707-5.234-3.926c-3.925,0-6.979,0.654-9.159,1.963L403.387,86.096z
		 M421.378,105.067v-3.696c-0.872-1.678-2.944-2.519-6.216-2.519c-3.925,0.437-5.997,1.963-6.215,4.579
		c0.218,2.596,2.29,4.003,6.215,4.221C418.434,107.652,420.506,106.791,421.378,105.067z"/>
</g>
<circle fill="#4E4E4E" cx="108.849" cy="92.261" r="4.655"/>
<path fill="#4E4E4E" d="M112.265,79.783l-7.846,5.195c-0.453,0.727-0.922,1.917-1.4,2.627h1.556l10.041-6.059L112.265,79.783z"/>
<circle fill="#4E4E4E" cx="84.786" cy="92.261" r="4.655"/>
<path fill="#4E4E4E" d="M81.369,79.783l7.846,5.195c0.454,0.727,0.922,1.917,1.4,2.627h-1.555l-10.042-6.059L81.369,79.783z"/>
</svg>
