<?xml version="1.0" encoding="utf-8"?>
<!-- Generator: Adobe Illustrator 18.0.0, SVG Export Plug-In . SVG Version: 6.00 Build 0)  -->
<!DOCTYPE svg PUBLIC "-//W3C//DTD SVG 1.1//EN" "http://www.w3.org/Graphics/SVG/1.1/DTD/svg11.dtd">
<svg version="1.1" id="Layer_1" xmlns="http://www.w3.org/2000/svg" xmlns:xlink="http://www.w3.org/1999/xlink" x="0px" y="0px"
	 viewBox="0 0 512 512" enable-background="new 0 0 512 512" xml:space="preserve">
<path id="video-play-3-icon" fill="#FFFFFF" d="M256,92.5c44.4,0,86.2,17.1,117.6,48.1C404.8,171.4,422,212.4,422,256
	s-17.2,84.6-48.4,115.5c-31.4,31-73.1,48.1-117.6,48.1s-86.2-17.1-117.6-48.1C107.2,340.6,90,299.6,90,256s17.2-84.6,48.4-115.5
	C169.8,109.6,211.6,92.5,256,92.5 M256,52.5C142.2,52.5,50,143.6,50,256c0,112.4,92.2,203.5,206,203.5c113.8,0,206-91.1,206-203.5
	C462,143.6,369.8,52.5,256,52.5L256,52.5z M206.5,357.2V159.8l160.9,98.7L206.5,357.2z"/>
</svg>
